<svg xmlns="http://www.w3.org/2000/svg" viewBox="0 0 1200 630" fill="none">
  <defs>
    <linearGradient id="bg" x1="140" y1="60" x2="980" y2="570" gradientUnits="userSpaceOnUse">
      <stop offset="0" stop-color="#38BDF8" />
      <stop offset=".42" stop-color="#2563EB" />
      <stop offset="1" stop-color="#0F172A" />
    </linearGradient>
    <radialGradient id="glowA" cx="0" cy="0" r="1" gradientUnits="userSpaceOnUse" gradientTransform="translate(210 130) rotate(33) scale(360)">
      <stop stop-color="#FFFFFF" stop-opacity=".26" />
      <stop offset="1" stop-color="#FFFFFF" stop-opacity="0" />
    </radialGradient>
    <radialGradient id="glowB" cx="0" cy="0" r="1" gradientUnits="userSpaceOnUse" gradientTransform="translate(960 520) rotate(180) scale(340)">
      <stop stop-color="#7DD3FC" stop-opacity=".30" />
      <stop offset="1" stop-color="#7DD3FC" stop-opacity="0" />
    </radialGradient>
  </defs>

  <rect width="1200" height="630" rx="36" fill="#09111F" />
  <rect x="28" y="28" width="1144" height="574" rx="32" fill="url(#bg)" />
  <rect x="28" y="28" width="1144" height="574" rx="32" stroke="rgba(255,255,255,0.18)" stroke-width="2" />
  <rect x="70" y="70" width="1060" height="490" rx="28" fill="rgba(255,255,255,0.08)" />
  <rect x="70" y="70" width="1060" height="490" rx="28" stroke="rgba(255,255,255,0.16)" />
  <rect x="70" y="70" width="1060" height="490" rx="28" fill="url(#glowA)" />
  <rect x="70" y="70" width="1060" height="490" rx="28" fill="url(#glowB)" />

  <rect x="116" y="118" width="120" height="120" rx="34" fill="rgba(255,255,255,0.12)" />
  <rect x="116" y="118" width="120" height="120" rx="34" stroke="rgba(255,255,255,0.18)" />
  <text x="176" y="195" fill="white" font-size="52" font-weight="700" text-anchor="middle" font-family="Avenir Next, Segoe UI, sans-serif">AM</text>

  <text x="116" y="305" fill="rgba(255,255,255,0.78)" font-size="22" font-weight="700" letter-spacing="7" font-family="Avenir Next, Segoe UI, sans-serif">FULL-STACK SOFTWARE ENGINEER</text>
  <text x="116" y="390" fill="white" font-size="72" font-weight="700" font-family="Avenir Next, Segoe UI, sans-serif">Asheri Musa</text>
  <text x="116" y="448" fill="rgba(255,255,255,0.88)" font-size="30" font-family="Avenir Next, Segoe UI, sans-serif">React Native, Expo, Next.js, Bun, Laravel, GraphQL</text>
  <text x="116" y="498" fill="rgba(255,255,255,0.72)" font-size="24" font-family="Avenir Next, Segoe UI, sans-serif">Building polished mobile apps, modern websites, and production-ready products.</text>

  <rect x="840" y="126" width="250" height="70" rx="35" fill="rgba(255,255,255,0.1)" />
  <rect x="840" y="126" width="250" height="70" rx="35" stroke="rgba(255,255,255,0.16)" />
  <text x="965" y="170" fill="white" font-size="26" font-weight="600" text-anchor="middle" font-family="Avenir Next, Segoe UI, sans-serif">Team Lead</text>

  <rect x="830" y="328" width="272" height="152" rx="28" fill="rgba(9,17,31,0.24)" />
  <rect x="830" y="328" width="272" height="152" rx="28" stroke="rgba(255,255,255,0.12)" />
  <text x="864" y="382" fill="white" font-size="26" font-weight="600" font-family="Avenir Next, Segoe UI, sans-serif">Based in Kampala, Uganda</text>
  <text x="864" y="425" fill="rgba(255,255,255,0.72)" font-size="21" font-family="Avenir Next, Segoe UI, sans-serif">Portfolio, projects, and contact</text>
  <text x="864" y="459" fill="rgba(255,255,255,0.72)" font-size="21" font-family="Avenir Next, Segoe UI, sans-serif">for mobile, web, and product work</text>
</svg>
