<svg xmlns="http://www.w3.org/2000/svg" viewBox="0 0 1200 630" fill="none">
  <defs>
    <linearGradient id="preview-bg" x1="110" y1="54" x2="1016" y2="594" gradientUnits="userSpaceOnUse">
      <stop offset="0" stop-color="#38BDF8" />
      <stop offset="0.38" stop-color="#2563EB" />
      <stop offset="1" stop-color="#09111F" />
    </linearGradient>
    <linearGradient id="panel-shine" x1="142" y1="94" x2="912" y2="546" gradientUnits="userSpaceOnUse">
      <stop offset="0" stop-color="#FFFFFF" stop-opacity=".18" />
      <stop offset="1" stop-color="#FFFFFF" stop-opacity=".03" />
    </linearGradient>
    <radialGradient id="orb-a" cx="0" cy="0" r="1" gradientUnits="userSpaceOnUse" gradientTransform="translate(258 128) rotate(28) scale(390 300)">
      <stop stop-color="#FFFFFF" stop-opacity=".26" />
      <stop offset="1" stop-color="#FFFFFF" stop-opacity="0" />
    </radialGradient>
    <radialGradient id="orb-b" cx="0" cy="0" r="1" gradientUnits="userSpaceOnUse" gradientTransform="translate(1008 522) rotate(180) scale(360 280)">
      <stop stop-color="#67E8F9" stop-opacity=".34" />
      <stop offset="1" stop-color="#67E8F9" stop-opacity="0" />
    </radialGradient>
    <linearGradient id="icon-bg" x1="10" y1="8" x2="56" y2="58" gradientUnits="userSpaceOnUse">
      <stop offset="0" stop-color="#38BDF8" />
      <stop offset="0.52" stop-color="#2563EB" />
      <stop offset="1" stop-color="#0F172A" />
    </linearGradient>
    <radialGradient id="icon-glow" cx="0" cy="0" r="1" gradientUnits="userSpaceOnUse" gradientTransform="translate(20 16) rotate(45) scale(26)">
      <stop stop-color="#FFFFFF" stop-opacity=".34" />
      <stop offset="1" stop-color="#FFFFFF" stop-opacity="0" />
    </radialGradient>
  </defs>

  <rect width="1200" height="630" rx="40" fill="#07111D" />
  <rect x="24" y="24" width="1152" height="582" rx="34" fill="url(#preview-bg)" />
  <rect x="24" y="24" width="1152" height="582" rx="34" stroke="rgba(255,255,255,0.16)" stroke-width="2" />
  <rect x="62" y="62" width="1076" height="506" rx="30" fill="rgba(255,255,255,0.08)" />
  <rect x="62" y="62" width="1076" height="506" rx="30" fill="url(#panel-shine)" />
  <rect x="62" y="62" width="1076" height="506" rx="30" stroke="rgba(255,255,255,0.14)" />
  <rect x="62" y="62" width="1076" height="506" rx="30" fill="url(#orb-a)" />
  <rect x="62" y="62" width="1076" height="506" rx="30" fill="url(#orb-b)" />

  <path d="M92 142H548" stroke="rgba(255,255,255,0.18)" stroke-width="2" />
  <path d="M92 486H568" stroke="rgba(255,255,255,0.12)" stroke-width="2" />

  <rect x="98" y="100" width="258" height="50" rx="25" fill="rgba(255,255,255,0.10)" />
  <rect x="98" y="100" width="258" height="50" rx="25" stroke="rgba(255,255,255,0.18)" />
  <text x="227" y="132" fill="white" font-size="19" font-weight="700" text-anchor="middle" letter-spacing="4" font-family="Avenir Next, Segoe UI, sans-serif">
    ASHERI MUSA PORTFOLIO
  </text>

  <text x="98" y="228" fill="rgba(255,255,255,0.76)" font-size="22" font-weight="700" letter-spacing="6" font-family="Avenir Next, Segoe UI, sans-serif">
    FULL-STACK SOFTWARE ENGINEER
  </text>
  <text x="98" y="316" fill="white" font-size="78" font-weight="700" font-family="Avenir Next, Segoe UI, sans-serif">
    Modern apps,
  </text>
  <text x="98" y="392" fill="white" font-size="78" font-weight="700" font-family="Avenir Next, Segoe UI, sans-serif">
    sharp product presence.
  </text>
  <text x="98" y="450" fill="rgba(255,255,255,0.88)" font-size="28" font-family="Avenir Next, Segoe UI, sans-serif">
    Mobile apps, web platforms, and product-ready admin systems
  </text>

  <rect x="98" y="490" width="252" height="52" rx="26" fill="rgba(255,255,255,0.10)" />
  <rect x="98" y="490" width="252" height="52" rx="26" stroke="rgba(255,255,255,0.16)" />
  <text x="224" y="523" fill="white" font-size="22" font-weight="600" text-anchor="middle" font-family="Avenir Next, Segoe UI, sans-serif">
    Full-Stack Engineer
  </text>

  <rect x="366" y="490" width="200" height="52" rx="26" fill="rgba(9,17,31,0.20)" />
  <rect x="366" y="490" width="200" height="52" rx="26" stroke="rgba(255,255,255,0.12)" />
  <text x="466" y="523" fill="rgba(255,255,255,0.88)" font-size="22" font-weight="600" text-anchor="middle" font-family="Avenir Next, Segoe UI, sans-serif">
    Kampala, Uganda
  </text>

  <rect x="742" y="92" width="356" height="356" rx="42" fill="rgba(255,255,255,0.08)" />
  <rect x="742" y="92" width="356" height="356" rx="42" stroke="rgba(255,255,255,0.16)" />
  <rect x="772" y="122" width="296" height="296" rx="36" fill="rgba(7,17,29,0.18)" />
  <rect x="772" y="122" width="296" height="296" rx="36" stroke="rgba(255,255,255,0.10)" />

  <svg x="812" y="162" width="216" height="216" viewBox="0 0 64 64" fill="none">
    <rect width="64" height="64" rx="18" fill="url(#icon-bg)" />
    <rect x="2" y="2" width="60" height="60" rx="16" stroke="rgba(255,255,255,0.24)" stroke-width="2" />
    <rect x="8" y="8" width="48" height="48" rx="14" fill="url(#icon-glow)" />
    <path
      d="M18 46L28.8 18H35L46 46H39.2L36.7 39.2H27.1L24.6 46H18ZM28.9 33.8H34.9L31.9 25.4L28.9 33.8Z"
      fill="white"
    />
    <circle cx="45.5" cy="18.5" r="4.5" fill="#A5F3FC" />
  </svg>

  <rect x="706" y="458" width="404" height="82" rx="28" fill="rgba(8,16,28,0.24)" />
  <rect x="706" y="458" width="404" height="82" rx="28" stroke="rgba(255,255,255,0.12)" />
  <text x="738" y="494" fill="white" font-size="23" font-weight="600" font-family="Avenir Next, Segoe UI, sans-serif">
    Portfolio, contact, and product work
  </text>
  <text x="738" y="525" fill="rgba(255,255,255,0.72)" font-size="21" font-family="Avenir Next, Segoe UI, sans-serif">
    hashmozy.github.io/asheri
  </text>
</svg>
